<?xml version="1.0" standalone="no"?>
<!DOCTYPE svg PUBLIC "-//W3C//DTD SVG 20010904//EN"
 "http://www.w3.org/TR/2001/REC-SVG-20010904/DTD/svg10.dtd">
<svg version="1.0" xmlns="http://www.w3.org/2000/svg"
 width="209.000000pt" height="211.000000pt" viewBox="0 0 209.000000 211.000000"
 preserveAspectRatio="xMidYMid meet">
<metadata>
Created by potrace 1.10, written by Peter Selinger 2001-2011
</metadata>
<g transform="translate(0.000000,211.000000) scale(0.100000,-0.100000)"
fill="#000000" stroke="none">
<path d="M750 1769 c0 -84 -18 -142 -63 -208 -50 -72 -60 -117 -55 -237 4 -86
9 -110 36 -168 56 -119 59 -120 59 -14 1 70 6 108 22 151 11 31 30 82 41 111
11 30 25 87 32 125 15 86 1 166 -42 250 l-29 56 -1 -66z m43 -187 c-1 -46 -12
-95 -33 -157 -18 -49 -39 -116 -49 -147 -9 -31 -19 -60 -23 -63 -11 -12 -28
68 -28 135 0 86 14 133 60 205 21 33 42 73 46 88 12 50 29 12 27 -61z"/>
<path d="M1280 1796 c-57 -42 -165 -156 -186 -199 -26 -49 -93 -247 -84 -247
15 0 29 26 70 130 23 57 57 125 75 150 39 53 93 105 118 113 22 8 22 -18 2
-132 -33 -191 -81 -313 -159 -406 -85 -101 -164 -245 -237 -430 -12 -33 -27
-64 -31 -70 -5 -5 -6 46 -2 115 4 98 9 129 24 150 14 20 22 58 29 149 14 151
45 257 77 254 19 -2 22 6 31 80 6 45 10 83 8 85 -6 6 -69 -102 -96 -168 -30
-70 -43 -143 -57 -320 l-8 -95 -14 90 -15 90 -2 -65 c-6 -175 -25 -495 -34
-574 -11 -98 -6 -121 11 -55 18 75 100 299 156 428 62 143 122 248 174 305 88
96 143 227 174 416 16 103 31 240 25 240 -2 0 -24 -15 -49 -34z"/>
<path d="M316 1318 c15 -101 45 -224 68 -274 40 -88 71 -120 149 -157 89 -42
138 -91 182 -182 19 -38 35 -68 35 -65 0 3 -15 80 -34 170 -41 198 -66 277
-111 344 -44 67 -152 147 -258 191 l-37 15 6 -42z m130 -64 c84 -50 121 -89
159 -169 33 -67 74 -219 63 -230 -3 -3 -27 7 -54 23 -27 17 -69 40 -94 54 -77
40 -140 162 -156 304 -8 66 -1 68 82 18z"/>
<path d="M1110 923 c-20 -26 -21 -35 -18 -266 3 -237 3 -239 27 -258 33 -27
149 -27 182 0 20 16 24 30 27 96 l4 76 -43 -3 -44 -3 0 -50 c0 -49 -1 -50 -32
-53 l-33 -3 0 206 c0 181 2 206 16 212 28 11 49 -11 48 -51 l-1 -36 43 0 44 0
0 54 c0 39 -6 60 -21 80 -19 24 -26 26 -99 26 -73 0 -80 -2 -100 -27z m168
-15 c7 -7 12 -25 12 -41 l0 -30 -23 34 c-28 42 -67 49 -96 20 -20 -20 -21 -33
-22 -208 -2 -218 -2 -213 18 -235 35 -39 94 -14 113 48 7 26 8 24 9 -18 1 -27
-4 -50 -11 -54 -17 -11 -128 -8 -139 3 -14 14 -12 462 2 479 14 18 120 19 137
2z"/>
<path d="M1411 924 c-20 -25 -21 -39 -21 -261 l0 -234 25 -24 c21 -22 33 -25
95 -25 125 0 134 24 128 327 -4 244 -3 243 -123 243 -78 0 -85 -2 -104 -26z
m180 -31 c15 -40 8 -448 -8 -464 -17 -17 -128 -18 -144 -2 -19 19 -19 454 0
476 10 13 30 17 77 17 61 0 65 -2 75 -27z"/>
<path d="M1470 890 c-19 -19 -20 -33 -20 -223 0 -185 2 -205 18 -220 28 -25
67 -21 91 9 20 25 21 40 21 214 0 174 -1 189 -21 214 -25 31 -61 34 -89 6z
m69 -24 c8 -9 11 -73 9 -207 l-3 -194 -32 -3 -33 -3 0 204 c0 112 3 207 7 210
11 12 40 8 52 -7z"/>
<path d="M176 842 c-8 -14 70 -118 129 -170 28 -24 65 -46 89 -52 23 -6 58
-15 78 -20 46 -13 200 -115 247 -164 54 -55 56 -43 5 31 -25 36 -61 98 -81
137 -55 111 -113 178 -185 216 -42 23 -73 27 -47 7 25 -19 69 -88 69 -108 0
-14 -11 -7 -42 27 -61 66 -117 95 -192 101 -38 3 -66 1 -70 -5z m201 -84 c91
-71 95 -72 119 -42 l22 27 32 -44 c35 -49 54 -82 64 -117 7 -21 3 -20 -67 17
-41 21 -100 44 -131 51 -31 6 -56 15 -56 19 0 3 -14 15 -31 25 -30 18 -89 90
-89 109 0 24 83 -3 137 -45z"/>
<path d="M1717 792 c-10 -10 -17 -35 -17 -55 0 -34 2 -37 30 -37 23 0 30 4 30
20 0 15 7 20 25 20 24 0 25 -3 25 -60 l0 -60 -39 0 c-59 0 -71 -23 -71 -137
l0 -93 85 0 85 0 0 35 0 35 -56 0 -55 0 3 43 c3 41 4 42 43 45 22 2 46 10 53
19 15 21 17 196 2 224 -15 27 -119 28 -143 1z"/>
</g>
</svg>
